<svg width="49" height="49" viewBox="0 0 49 49" fill="none" xmlns="http://www.w3.org/2000/svg">
<path d="M24.5 6.125C21.8672 6.12455 19.3043 6.97233 17.1912 8.5427C15.078 10.1131 13.527 12.3225 12.768 14.8435C12.009 17.3645 12.0824 20.0629 12.9773 22.539C13.8722 25.015 15.5411 27.1368 17.7365 28.59C15.2075 29.6285 13.0444 31.3956 11.5221 33.6665C9.99987 35.9375 9.18723 38.6098 9.1875 41.3438C9.1875 41.7499 9.34883 42.1393 9.63599 42.4265C9.92316 42.7137 10.3126 42.875 10.7188 42.875H38.2812C38.6874 42.875 39.0768 42.7137 39.364 42.4265C39.6512 42.1393 39.8125 41.7499 39.8125 41.3438C39.8128 38.6098 39.0001 35.9375 37.4779 33.6665C35.9556 31.3956 33.7925 29.6285 31.2635 28.59C33.4589 27.1368 35.1278 25.015 36.0227 22.539C36.9176 20.0629 36.991 17.3645 36.232 14.8435C35.473 12.3225 33.922 10.1131 31.8088 8.5427C29.6957 6.97233 27.1328 6.12455 24.5 6.125Z" fill="#ED820E" fill-opacity="0.53"/>
</svg>
