<svg width="39" height="40" viewBox="0 0 39 40" fill="none" xmlns="http://www.w3.org/2000/svg">
<path fill-rule="evenodd" clip-rule="evenodd" d="M6.5 0C4.77609 0 3.12279 0.702399 1.90381 1.95268C0.684819 3.20296 0 4.8987 0 6.66686V26.3508C0 28.1189 0.684819 29.8147 1.90381 31.065C3.12279 32.3152 4.77609 33.0176 6.5 33.0176H9.75V38.3345C9.75022 38.6515 9.83858 38.9619 10.0047 39.2292C10.1709 39.4965 10.4079 39.7097 10.688 39.8437C10.9681 39.9778 11.2797 40.0271 11.5861 39.9859C11.8926 39.9447 12.1813 39.8147 12.4183 39.6112L20.0915 33.0176H32.5C34.2239 33.0176 35.8772 32.3152 37.0962 31.065C38.3152 29.8147 39 28.1189 39 26.3508V6.66686C39 4.8987 38.3152 3.20296 37.0962 1.95268C35.8772 0.702399 34.2239 0 32.5 0H6.5ZM3.25 6.66686C3.25 5.78278 3.59241 4.93491 4.2019 4.30977C4.8114 3.68463 5.63805 3.33343 6.5 3.33343H32.5C33.362 3.33343 34.1886 3.68463 34.7981 4.30977C35.4076 4.93491 35.75 5.78278 35.75 6.66686V26.3508C35.75 27.2349 35.4076 28.0827 34.7981 28.7079C34.1886 29.333 33.362 29.6842 32.5 29.6842H19.5C19.1186 29.6841 18.7493 29.8215 18.4567 30.0725L13 34.7627V31.3509C13 30.9089 12.8288 30.4849 12.524 30.1724C12.2193 29.8598 11.806 29.6842 11.375 29.6842H6.5C5.63805 29.6842 4.8114 29.333 4.2019 28.7079C3.59241 28.0827 3.25 27.2349 3.25 26.3508V6.66686Z" fill="#ED820E"/>
</svg>
