<svg width="40" height="41" viewBox="0 0 40 41" fill="none" xmlns="http://www.w3.org/2000/svg">
<path d="M3.33333 40.5C2.41667 40.5 1.63222 40.0652 0.98 39.1956C0.327778 38.3259 0.00111111 37.2793 0 36.0556V4.94444C0 3.72222 0.326667 2.6763 0.98 1.80667C1.63333 0.937037 2.41778 0.501481 3.33333 0.5H36.6667C37.5833 0.5 38.3683 0.935556 39.0217 1.80667C39.675 2.67778 40.0011 3.7237 40 4.94444V36.0556C40 37.2778 39.6739 38.3244 39.0217 39.1956C38.3694 40.0667 37.5844 40.5015 36.6667 40.5H3.33333ZM26.5 36.0556H36.6667V4.94444H3.33333V36.0556H3.5C4.66667 33.2778 6.27778 31.1022 8.33333 29.5289C10.3889 27.9556 12.6111 27.1681 15 27.1667C17.3889 27.1667 19.6111 27.9541 21.6667 29.5289C23.7222 31.1037 25.3333 33.2793 26.5 36.0556ZM15 24.9444C16.3889 24.9444 17.5694 24.2963 18.5417 23C19.5139 21.7037 20 20.1296 20 18.2778C20 16.4259 19.5139 14.8519 18.5417 13.5556C17.5694 12.2593 16.3889 11.6111 15 11.6111C13.6111 11.6111 12.4306 12.2593 11.4583 13.5556C10.4861 14.8519 10 16.4259 10 18.2778C10 20.1296 10.4861 21.7037 11.4583 23C12.4306 24.2963 13.6111 24.9444 15 24.9444ZM31.6667 33.8333L35 29.3889L32.5 24.9444H29.75C29.5833 24.2778 29.4444 23.5652 29.3333 22.8067C29.2222 22.0481 29.1667 21.2793 29.1667 20.5C29.1667 19.7222 29.2222 18.9726 29.3333 18.2511C29.4444 17.5296 29.5833 16.7978 29.75 16.0556H32.5L35 11.6111L31.6667 7.16667C30.1667 8.72222 28.9583 10.6948 28.0417 13.0844C27.125 15.4741 26.6667 17.9459 26.6667 20.5C26.6667 23.0556 27.125 25.5281 28.0417 27.9178C28.9583 30.3074 30.1667 32.2793 31.6667 33.8333ZM7.58333 36.0556H22.4167C21.4722 34.6481 20.3539 33.5556 19.0617 32.7778C17.7694 32 16.4156 31.6111 15 31.6111C13.5833 31.6111 12.2361 32 10.9583 32.7778C9.68055 33.5556 8.55556 34.6481 7.58333 36.0556ZM15 20.5C14.5278 20.5 14.1322 20.2867 13.8133 19.86C13.4944 19.4333 13.3344 18.9059 13.3333 18.2778C13.3333 17.6481 13.4933 17.1207 13.8133 16.6956C14.1333 16.2704 14.5289 16.057 15 16.0556C15.4722 16.0556 15.8683 16.2689 16.1883 16.6956C16.5083 17.1222 16.6678 17.6496 16.6667 18.2778C16.6667 18.9074 16.5067 19.4356 16.1867 19.8622C15.8667 20.2889 15.4711 20.5015 15 20.5Z" fill="#ED820E"/>
</svg>
