<svg width="24" height="27" viewBox="0 0 24 27" fill="none" xmlns="http://www.w3.org/2000/svg">
<path d="M7.89108 0.749306C10.5507 -0.276505 13.4428 -0.248291 16.0861 0.829254C17.5378 1.43991 18.8679 2.3666 20 3.55615C19.6153 4.01855 19.2095 4.45071 18.8172 4.90015C18.071 5.73708 17.3254 6.57114 16.5804 7.40232C15.8378 6.6043 14.9395 6.01234 13.9571 5.6737C12.7 5.24725 11.3626 5.21805 10.0917 5.58931C8.82083 5.96056 7.6655 6.71792 6.7525 7.77829C5.95557 8.68913 5.35203 9.79044 4.98694 11L1 7.53196C2.42708 4.35252 4.89799 1.92049 7.89108 0.749306Z" fill="#E33629"/>
<path d="M0.225696 10.6391C0.428353 9.37518 0.765059 8.15122 1.22679 7L5 10.6826C4.50653 12.5104 4.50653 14.4919 5 16.3197C3.74287 17.5404 2.48513 18.7671 1.22679 20C0.0712556 17.1078 -0.281162 13.8124 0.225696 10.6391Z" fill="#F8BD00"/>
<path d="M11.001 11H23.7423C24.1779 13.4265 24.06 15.922 23.3977 18.2951C22.7881 20.4773 21.604 22.4496 19.9726 24C18.5405 22.866 17.1019 21.7406 15.6698 20.6066C16.3798 20.1206 16.9858 19.4941 17.4515 18.7647C17.9172 18.0352 18.233 17.2179 18.3799 16.3616H11.001C10.9988 14.5759 11.001 12.7879 11.001 11Z" fill="#587DBD"/>
<path d="M1 19.4761C2.33408 18.3232 3.66751 17.1645 5.0003 16C5.51594 17.6953 6.49662 19.1646 7.80225 20.1982C8.6165 20.8432 9.54189 21.2908 10.5193 21.5125C11.4823 21.7132 12.4701 21.7132 13.4332 21.5125C14.3935 21.3307 15.3091 20.9257 16.1213 20.3236C17.4122 21.452 18.709 22.5718 20 23.7003C18.5872 25.1394 16.865 26.1428 15.002 26.6122C12.9457 27.1537 10.8028 27.1278 8.75747 26.5365C7.13979 26.0527 5.62877 25.1997 4.31911 24.031C2.93305 22.798 1.8009 21.2443 1 19.4761Z" fill="#319F43"/>
</svg>
