<svg width="40" height="41" viewBox="0 0 40 41" fill="none" xmlns="http://www.w3.org/2000/svg">
<path d="M30.5014 15.4996H21.0014V19.8749C21.0014 22.9768 18.9826 25.5004 16.5014 25.5004C14.0201 25.5004 12.0014 22.9768 12.0014 19.8749V10.3741L7.94516 13.4213C6.73891 14.3198 6.00141 15.9527 6.00141 17.7029V21.3985L1.00142 25.0082C0.0451754 25.6958 -0.286074 27.2271 0.270175 28.4225L5.27017 39.2516C5.82016 40.447 7.04516 40.8533 8.00141 40.1657L14.4639 35.5013H23.0014C25.2076 35.5013 27.0014 33.2589 27.0014 30.5008H28.0014C29.1076 30.5008 30.0014 29.3836 30.0014 28.0006V23.0002H30.5014C31.3326 23.0002 32.0014 22.1642 32.0014 21.1251V17.3747C32.0014 16.3356 31.3326 15.4996 30.5014 15.4996ZM39.7326 12.5775L34.7326 1.74842C34.1826 0.553002 32.9576 0.146718 32.0014 0.834276L25.5389 5.49873H19.1514C18.4014 5.49873 17.6701 5.76438 17.0326 6.25661L14.9389 7.88956C14.3514 8.34272 14.0014 9.14748 14.0014 10.0069V19.8749C14.0014 21.6017 15.1201 23.0002 16.5014 23.0002C17.8826 23.0002 19.0014 21.6017 19.0014 19.8749V12.9994H30.5014C32.4326 12.9994 34.0014 14.9605 34.0014 17.3747V19.6015L39.0014 15.9918C39.9576 15.2964 40.2826 13.7729 39.7326 12.5775Z" fill="#ED820E"/>
</svg>
