<svg width="44" height="45" viewBox="0 0 44 45" fill="none" xmlns="http://www.w3.org/2000/svg">
<path d="M17.3846 38.9295C17.6506 39.9519 18.248 40.8571 19.0832 41.5033C19.9185 42.1495 20.9443 42.5 22 42.5C23.0557 42.5 24.0815 42.1495 24.9168 41.5033C25.752 40.8571 26.3494 39.9519 26.6154 38.9295M22 2.5C25.5009 2.5 28.8583 3.89184 31.3338 6.36932C33.8093 8.8468 35.2 12.207 35.2 15.7107C35.2 30.3995 40.5538 33.2941 42 33.2941H2C3.47692 33.2941 8.8 30.3687 8.8 15.7107C8.8 12.207 10.1907 8.8468 12.6662 6.36932C15.1417 3.89184 18.4991 2.5 22 2.5Z" stroke="#ED820E" stroke-width="3.57143" stroke-linecap="round" stroke-linejoin="round"/>
</svg>
