<svg width="23" height="29" viewBox="0 0 23 29" fill="none" xmlns="http://www.w3.org/2000/svg">
<path d="M11.4837 16C10.9374 16.0019 10.4068 16.1568 9.97372 16.4411C9.54059 16.7254 9.22881 17.1232 9.08631 17.5735C8.94381 18.0238 8.97848 18.5016 9.18499 18.9334C9.3915 19.3652 9.75842 19.7272 10.2293 19.9636V23H12.7686V19.9636C13.1412 19.7755 13.4504 19.5082 13.6662 19.1878C13.882 18.8675 13.997 18.5048 14 18.1353C14 17.8538 13.9348 17.5751 13.8082 17.3151C13.6815 17.0552 13.4959 16.8193 13.2621 16.6208C13.0282 16.4224 12.7507 16.2653 12.4455 16.1588C12.1403 16.0523 11.8134 15.9983 11.4837 16Z" stroke="#898888" stroke-width="1.04167" stroke-linecap="round" stroke-linejoin="round"/>
<path d="M19.2699 10H3.73006C2.22229 10 1 11.3531 1 13.0222V24.9778C1 26.6469 2.22229 28 3.73006 28H19.2699C20.7777 28 22 26.6469 22 24.9778V13.0222C22 11.3531 20.7777 10 19.2699 10Z" stroke="#898888" stroke-width="1.04167" stroke-linecap="round" stroke-linejoin="round"/>
<path d="M5 10V8.22984C5 6.31237 5.68482 4.47343 6.90381 3.11757C8.12279 1.76171 9.77609 1 11.5 1C13.2239 1 14.8772 1.76171 16.0962 3.11757C17.3152 4.47343 18 6.31237 18 8.22984V10" stroke="#898888" stroke-width="1.04167" stroke-linecap="round" stroke-linejoin="round"/>
</svg>
