<svg width="33" height="37" viewBox="0 0 33 37" fill="none" xmlns="http://www.w3.org/2000/svg">
<path d="M16.6667 0.125C13.9085 0.124548 11.2236 0.972326 9.00979 2.5427C6.796 4.11307 5.17113 6.32247 4.37598 8.84347C3.58084 11.3645 3.65774 14.0629 4.59528 16.539C5.53281 19.015 7.28111 21.1368 9.58106 22.59C6.93162 23.6285 4.66552 25.3956 3.07078 27.6665C1.47605 29.9375 0.624721 32.6098 0.625 35.3437C0.625 35.7499 0.79401 36.1393 1.09485 36.4265C1.39569 36.7137 1.80372 36.875 2.22917 36.875H31.1042C31.5296 36.875 31.9376 36.7137 32.2385 36.4265C32.5393 36.1393 32.7083 35.7499 32.7083 35.3437C32.7086 32.6098 31.8573 29.9375 30.2625 27.6665C28.6678 25.3956 26.4017 23.6285 23.7523 22.59C26.0522 21.1368 27.8005 19.015 28.7381 16.539C29.6756 14.0629 29.7525 11.3645 28.9573 8.84347C28.1622 6.32247 26.5373 4.11307 24.3235 2.5427C22.1097 0.972326 19.4248 0.124548 16.6667 0.125Z" fill="#ED820E"/>
</svg>
