<svg width="16" height="31" viewBox="0 0 16 31" fill="none" xmlns="http://www.w3.org/2000/svg">
<path d="M13.3333 0H2.66667C1.95942 0 1.28115 0.326606 0.781048 0.907969C0.280951 1.48933 0 2.27783 0 3.1V27.9C0 28.7222 0.280951 29.5107 0.781048 30.092C1.28115 30.6734 1.95942 31 2.66667 31H13.3333C14.0406 31 14.7189 30.6734 15.219 30.092C15.719 29.5107 16 28.7222 16 27.9V3.1C16 2.27783 15.719 1.48933 15.219 0.907969C14.7189 0.326606 14.0406 0 13.3333 0ZM9.33333 29.45H6.66667V27.9H9.33333V29.45ZM13.3333 26.35H2.66667V4.65H13.3333V26.35Z" fill="#898888"/>
</svg>
